# xmcd
#
# Track frame offsets:
#	150
#	12080
#	25918
#	38224
#	64278
#	84606
#	96690
#	108627
#	124701
#	144244
#	156945
#	179085
#	206998
#	258965
#
# Disc length: 3579 seconds
#
# Revision: 0
# Processed by: cddbd v1.5.2PL0 Copyright (c) Steve Scherf et al.
# Submitted via: audiograbber 1.83.01
#
DISCID=cd0df90e
DTITLE=Gilles Vigneault - Confidences CD2 Jack et les autres
DYEAR=2006
DGENRE=Chanson française
TTITLE0=Jack Monoloy
TTITLE1=Jean-du-sud
TTITLE2=Jos Hebert
TTITLE3=Gros Pierre
TTITLE4=Tante Irene
TTITLE5=Berlu
TTITLE6=Bebe la guitare
TTITLE7=John Debardeur
TTITLE8=Ti-cul Lachance
TTITLE9=Berceuse pour Julie
TTITLE10=Mademoiselle Emilie
TTITLE11=Le nord du Nord
TTITLE12=Paul-eu-Gazette
TTITLE13=Zidor le prospecteur
EXTD=Compilation
EXTT0=
EXTT1=
EXTT2=
EXTT3=
EXTT4=
EXTT5=
EXTT6=
EXTT7=
EXTT8=
EXTT9=
EXTT10=
EXTT11=
EXTT12=
EXTT13=
PLAYORDER=
